<?xml version="1.0" encoding="utf-8"?>
<!-- Generator: Adobe Illustrator 23.1.0, SVG Export Plug-In . SVG Version: 6.00 Build 0)  -->
<svg version="1.1" id="Layer_1" xmlns="http://www.w3.org/2000/svg" xmlns:xlink="http://www.w3.org/1999/xlink" x="0px" y="0px"
	 viewBox="0 0 74 24.67" style="enable-background:new 0 0 74 24.67;" xml:space="preserve">
<path d="M60.38,15.7c-0.06-1.95,0.24-3.79,1.4-5.43c0.81-1.15,1.87-1.95,3.25-2.25c5.1-1.11,8.39,1.33,8.85,6.41
	c0.11,1.23,0.01,2.5-0.2,3.72c-0.6,3.58-3.19,5.5-6.85,5.4c-4.21-0.12-6.24-3.14-6.45-6.71C60.36,16.46,60.38,16.08,60.38,15.7z
	 M71.46,15.3c-0.27-1.17-0.4-2.1-0.69-2.97c-0.55-1.62-1.88-2.56-3.53-2.56c-1.67,0-2.99,0.7-3.62,2.29
	c-0.94,2.41-0.95,4.88,0.03,7.28c0.63,1.56,1.96,2.19,3.56,2.2c1.72,0,3.05-0.9,3.54-2.52C71.13,17.75,71.26,16.4,71.46,15.3z"/>
<path d="M56.88,23.21c-0.81,0-1.39,0-2,0c-0.13-0.51-0.25-0.99-0.39-1.55c-1.58,1.08-3.17,1.87-5.06,1.82
	c-2.16-0.05-3.72-1.25-4.05-3.15c-0.45-2.55,0.5-4.73,2.64-5.33c1.5-0.43,3.13-0.43,4.7-0.6c0.51-0.05,1.02-0.01,1.68-0.01
	c-0.1-0.92-0.12-1.72-0.3-2.48c-0.29-1.26-1.25-2.07-2.56-1.99c-1.5,0.09-2.98,0.4-4.63,0.63c-0.15-0.35-0.37-0.87-0.58-1.37
	c1.48-1.43,6.04-2.15,8.28-0.69c1.08,0.7,1.83,1.74,1.89,2.97C56.72,15.36,56.77,19.26,56.88,23.21z M54.32,16.15
	c-1.06,0-2.02-0.07-2.97,0.02c-0.81,0.07-1.66,0.2-2.39,0.52c-1.08,0.47-1.49,1.88-1.12,3.24c0.29,1.06,0.98,1.66,2.27,1.45
	c1.25-0.21,2.45-0.77,3.64-1.25c0.26-0.1,0.53-0.5,0.55-0.78C54.36,18.32,54.32,17.29,54.32,16.15z"/>
<path d="M16.33,10.74c-0.23-0.57-0.44-1.11-0.68-1.7c2.46-1.33,4.96-1.82,7.55-0.91c1.59,0.55,2.62,1.87,2.68,3.52
	c0.13,3.83,0.04,7.67,0.04,11.56c-0.52,0-1.1,0-1.68,0c-0.13-0.52-0.25-1.01-0.38-1.56c-1.6,1.09-3.21,1.92-5.14,1.85
	c-2.08-0.08-3.57-1.19-3.96-3c-0.51-2.4,0.24-4.54,2.18-5.28c1.35-0.52,2.88-0.59,4.34-0.79c0.74-0.1,1.51-0.02,2.53-0.02
	c-0.21-1.11-0.25-2.12-0.59-3.02c-0.5-1.31-1.97-1.79-3.96-1.41C18.32,10.15,17.4,10.45,16.33,10.74z M23.69,16
	c-1.77,0.18-3.43,0.2-5.02,0.54c-1.26,0.27-1.88,1.82-1.56,3.21c0.28,1.2,1.04,1.8,2.47,1.62c0.97-0.12,1.91-0.5,2.84-0.83
	c0.93-0.33,1.44-0.97,1.29-2.05C23.61,17.78,23.69,17.05,23.69,16z"/>
<path d="M2.59,23.21c-0.88,0-1.66,0-2.51,0c0-7.21,0-14.37,0-21.59c0.83-0.18,1.63-0.35,2.51-0.54C2.59,8.51,2.59,15.81,2.59,23.21z
	"/>
<path d="M33.22,23.21c-0.84,0-1.59,0-2.39,0c0-7.22,0-14.38,0-21.61c0.78-0.17,1.55-0.33,2.39-0.52
	C33.22,8.51,33.22,15.82,33.22,23.21z"/>
<path d="M40.17,7.56c0.69,0.51,1.27,0.93,1.99,1.46c-1.65,2.09-3.27,4.14-4.92,6.23c1.89,2.28,3.77,4.53,5.71,6.87
	c-0.66,0.52-1.27,1-1.96,1.54c-1.72-2.1-3.38-4.13-5.05-6.16c-1.73-2.11-1.73-2.11-0.11-4.25C37.24,11.38,38.68,9.51,40.17,7.56z"/>
<path d="M9.52,7.58c0.68,0.48,1.29,0.92,2,1.43c-0.83,1.06-1.63,2.09-2.44,3.1c-0.82,1.03-1.64,2.05-2.5,3.12
	c1.9,2.29,3.77,4.54,5.71,6.88c-0.62,0.5-1.23,0.99-1.93,1.57c-0.83-1.01-1.64-1.97-2.43-2.95C6.63,19.15,5.36,17.55,4.04,16
	C3.65,15.54,3.63,15.22,4,14.75C5.82,12.4,7.63,10.04,9.52,7.58z"/>
</svg>
