<svg id="Layer_2" data-name="Layer 2" xmlns="http://www.w3.org/2000/svg" viewBox="0 0 642 39.94"><defs><style>.cls-1{fill:none;stroke:#000;stroke-linecap:round;stroke-linejoin:round;stroke-width:2px;}</style></defs><title>아이콘</title><path class="cls-1" d="M265.33,247.94a16,16,0,0,1-13.92-23.88,16,16,0,1,0,15.84,23.75A15.22,15.22,0,0,1,265.33,247.94Z" transform="translate(-33.61 -220.03)"/><circle class="cls-1" cx="14.5" cy="17.47" r="13.5"/><line class="cls-1" x1="33" y1="35.97" x2="24" y2="26.97"/><circle class="cls-1" cx="117.84" cy="19.97" r="16.5"/><line class="cls-1" x1="101.84" y1="14.97" x2="133.84" y2="14.97"/><line class="cls-1" x1="101.84" y1="24.97" x2="133.84" y2="24.97"/><path class="cls-1" d="M151.45,224s-15,15,0,32" transform="translate(-33.61 -220.03)"/><path class="cls-1" d="M151.45,224s-15,15,0,32" transform="translate(-33.61 -220.03)"/><path class="cls-1" d="M151.45,224s15,15,0,32" transform="translate(-33.61 -220.03)"/><line class="cls-1" x1="404.35" y1="3.97" x2="435.35" y2="35.97"/><line class="cls-1" x1="404.35" y1="3.97" x2="435.35" y2="35.97"/><line class="cls-1" x1="436.35" y1="3.97" x2="405.35" y2="35.97"/><path class="cls-1" d="M337.22,237h33v-3.79a9.39,9.39,0,0,0-.68-4.3,10.6,10.6,0,0,0-2.76-3.34c-3.48-3-8.09-3.95-12.66-3.95a22.21,22.21,0,0,0-11,2.44,12.16,12.16,0,0,0-4.9,4.82,10.48,10.48,0,0,0-1.1,4.35C337.12,233.52,337.23,237,337.22,237Z" transform="translate(-33.61 -220.03)"/><circle cx="315.6" cy="6.97" r="1"/><circle cx="324.59" cy="6.97" r="1"/><circle cx="310.62" cy="11.01" r="1"/><circle cx="321.06" cy="11.01" r="1"/><circle cx="329.65" cy="11.01" r="1"/><path class="cls-1" d="M334.72,242.89a3.49,3.49,0,0,1,3.58,1.36c1.45,1.93,3.38,1.3,4.45,0s2.81-2.05,4.55-.11,3.72,0,3.72,0,2-2.91,4.65,0,4.3,0,4.3,0,1.85-3,4.29,0,4.18,0,4.18,0a4.13,4.13,0,0,1,3.1-1.33" transform="translate(-33.61 -220.03)"/><path class="cls-1" d="M336.26,251.28a16.24,16.24,0,0,0,.12,3,4.89,4.89,0,0,0,1.79,3.4c1.24.88,2.72.71,4.15.71h17.95c1.68,0,3.36,0,5,0a6,6,0,0,0,3.95-1.09,5.28,5.28,0,0,0,1.49-3.06c.06-.29.62-2.94.36-2.94Z" transform="translate(-33.61 -220.03)"/><circle class="cls-1" cx="622.03" cy="19.97" r="8.92"/><line class="cls-1" x1="622.03" y1="1" x2="622.03" y2="6.59"/><line class="cls-1" x1="608.62" y1="6.56" x2="612.57" y2="10.51"/><line class="cls-1" x1="603.06" y1="19.97" x2="608.65" y2="19.97"/><line class="cls-1" x1="608.62" y1="33.38" x2="612.57" y2="29.43"/><line class="cls-1" x1="622.03" y1="38.94" x2="622.03" y2="33.35"/><line class="cls-1" x1="635.44" y1="33.38" x2="631.49" y2="29.43"/><line class="cls-1" x1="641" y1="19.97" x2="635.41" y2="19.97"/><line class="cls-1" x1="635.44" y1="6.56" x2="631.49" y2="10.51"/><circle class="cls-1" cx="521.19" cy="19.97" r="15.65"/><path class="cls-1" d="M570.45,240c0-4-3.5-7.22-7.82-7.22S554.8,236,554.8,240" transform="translate(-33.61 -220.03)"/><path class="cls-1" d="M539.16,240c0,4,3.5,7.22,7.82,7.22S554.8,244,554.8,240" transform="translate(-33.61 -220.03)"/></svg>